<?xml version="1.0" encoding="UTF-8" standalone="yes"?>
<!-- Created with sK1/UniConvertor (http://sk1project.org/) -->
<svg xmlns="http://www.w3.org/2000/svg" xmlns:xlink="http://www.w3.org/1999/xlink"
  width="500pt" height="500pt" viewBox="0 0 500 500"
  fill-rule="evenodd">
<g>
<path style="stroke:none; fill:#000000" d="M 350 36.8C 312.6 61.9 280 93.2 253.3 129.9C 239.1 149.3 222.1 179.1 217.6 192.4C 215.2 199.5 215.4 211.2 218.1 220.2C 224.4 241.3 226.4 255 225.7 271.8C 225.2 286.6 222.5 296.3 215.4 310L 211 318.5L 216.9 312.3C 236 292.3 243.6 274.6 244.7 247C 245.1 236.2 244.8 229.4 243.5 220.5C 240.4 198.3 240.4 194.3 243.5 186.5C 255.8 155.4 279.8 117.4 307.5 85.2C 318.3 72.6 343.2 47.1 355.4 36.1C 359.8 32.2 363 29 362.4 29C 361.9 29 356.3 32.5 350 36.8z"/>
<path style="stroke:none; fill:#000000" d="M 337 63.7C 322.2 78.7 309.8 92.4 300.1 104.7L 296.8 108.9L 298.9 117.7C 305.3 144.3 304.2 166.1 295.3 188.5C 292 197 283.4 212.6 279.1 218L 277.2 220.5L 276.6 218C 276.3 216.6 275.6 213 275 210C 274.5 207 272.6 198.6 270.8 191.3L 267.6 178.2L 272.1 169.3C 277.1 159.5 285.7 146 287 146C 287.5 146 288.1 149.9 288.5 154.7C 289.5 165.8 287.7 182.9 284.4 195C 280.5 209.1 280.5 209.2 285.5 199.6C 299.2 173.3 302.5 145.2 294.9 120.3L 292.8 113.5L 289.4 117.5C 280.3 128.1 262.1 157.9 254.2 175.2L 250.3 183.5L 252.7 190.5C 255.6 198.9 261.6 222.2 262.5 228.5C 263.2 232.7 263 233.2 259 237.7C 252.9 244.6 251.3 248.4 249.1 261.1C 248 267.4 246.2 275.8 245.1 279.8L 243.2 287.1L 247.3 286.5C 255.1 285.2 268.5 280.9 276.7 277C 298.1 267 316.9 249.5 331 226.5C 335.7 218.9 346.4 197.1 345.8 196.4C 345.5 196.2 342.8 200 339.8 204.8C 329.2 221.2 315.8 236 301.5 246.8L 295.5 251.4L 303.7 242.6C 319.2 226.2 331.2 206.7 339.3 185C 344.6 170.8 344.8 168.4 340 177C 323.5 206.6 302.4 231.4 281 246C 271.3 252.7 267 257.5 267 261.7C 267 264.4 262.5 269.4 260.9 268.5C 259.8 267.8 260.6 259.7 262 257C 262.5 256.1 267.4 251 273 245.5C 283.6 235.1 296.5 219.9 302.5 210.4C 314.2 192.1 321 169.7 321 149.1C 321 140.2 318.7 123.8 316.1 114.9L 314.3 108.4L 321 96.8C 328.2 84.3 342.6 63 349.4 54.6C 351.7 51.8 353.9 48.9 354.4 48.2C 356.6 44.5 351.9 48.7 337 63.7z"/>
<path style="stroke:none; fill:#000000" d="M 341.8 78.9C 338.7 83.6 332.1 92.6 327 98.9L 317.9 110.2L 319.1 115.6C 319.8 118.6 320.7 121 321.2 121C 322.5 121 331.2 107.1 336.9 96C 341.6 86.9 348.4 71 347.8 70.5C 347.6 70.4 345 74.2 341.8 78.9z"/>
<path style="stroke:none; fill:#000000" d="M 141.1 86C 141 86.3 142.4 90.7 144 95.9C 154.1 127.9 159.2 169.3 157 200.6C 156.4 209.3 155.5 221.4 155.1 227.3C 153.5 250.5 156.6 269.2 165 286.2C 168.3 293 178.7 310 179.5 310C 179.6 310 182.3 308.5 185.3 306.6C 188.4 304.8 192.3 302.7 194 302C 197.3 300.6 197.6 299.8 195.7 297.8C 192.1 294.1 184.5 282.2 181 274.7C 174 259.8 173 251.8 175.1 227.7C 177.5 199.5 171.1 161.3 158 125.5C 151.2 107.1 141.2 83.6 141.1 86z"/>
<path style="stroke:none; fill:#000000" d="M 338.8 103.7C 336.3 108 331.5 114.9 328.1 119.2L 322 126.8L 322.6 133.9C 323 138.4 323.7 140.9 324.4 140.7C 326.2 140.1 337.5 117.1 340.3 108.4C 342.9 100.2 344 96 343.5 96C 343.4 96 341.2 99.5 338.8 103.7z"/>
<path style="stroke:none; fill:#000000" d="M 139 108.4C 139 108.6 139.9 113.9 140.9 120.2C 143.5 135.6 144.4 151.5 143.2 163.6C 142.3 172.1 141.7 174.4 139.1 178.7C 130.8 192.1 125 209.7 125 221.2C 125 233.4 128.6 243.5 136.9 254.3C 140.5 258.9 142.6 262.9 143.6 266.7C 144.4 269.8 145.9 274.3 146.9 276.6C 148 278.9 148.6 281 148.4 281.3C 147.6 282 134.4 279.9 127.5 277.9C 119.6 275.5 112.1 272 107.1 268.2C 103.6 265.6 103.6 265.6 105.3 268C 109.8 274.4 124.1 283.9 135.2 287.7C 143.5 290.6 163 292.3 163 290.1C 163 289.5 161.7 286.4 160.1 283.2C 156.6 276.2 152 263.6 152 260.9C 152 259.8 149.7 255.2 147 250.6C 132.6 227.1 133.2 204.2 148.9 181.1L 153.1 175L 152 164.8C 150.2 147.1 147.4 133.1 142 115C 140.8 111.1 139.7 108 139.5 108C 139.2 108 139 108.2 139 108.4z"/>
<path style="stroke:none; fill:#000000" d="M 344.1 119.2C 339.3 128 333.3 136.7 328.4 142C 324.5 146.3 324.3 146.8 323.6 154.7C 323.3 159.3 323.2 163 323.5 163C 324.4 163 334.6 146.8 338.3 139.5C 342 131.9 348.2 115.2 347.8 113.8C 347.6 113.3 345.9 115.8 344.1 119.2z"/>
<path style="stroke:none; fill:#000000" d="M 129.5 142.5C 130.1 153.7 133.2 173.8 134.9 176.8C 135.5 177.9 136.2 177.5 137.9 175.1L 140.1 172.1L 137.5 163.7C 136.1 159.1 133.6 149.7 132 142.9L 129 130.5L 129.5 142.5z"/>
<path style="stroke:none; fill:#000000" d="M 339.5 150.7C 336.8 154.9 331.7 161.2 328.2 164.7C 322.4 170.4 321.8 171.6 319.5 179.5C 318.1 184.3 316.3 189.8 315.5 191.7L 314 195.3L 316 193.5C 320.3 189.6 329.2 177.9 334 170C 339.1 161.5 345.3 146.8 344.8 144.4C 344.6 143.7 342.3 146.5 339.5 150.7z"/>
<path style="stroke:none; fill:#000000" d="M 119.5 154C 120.9 169.3 125.6 190 128 191.5C 128.5 191.8 130 189.8 131.3 187L 133.7 181.9L 128.4 171.2C 125.5 165.3 122.4 157.6 121.5 154C 120.6 150.4 119.6 147.3 119.3 147C 119.1 146.7 119.1 149.9 119.5 154z"/>
<path style="stroke:none; fill:#000000" d="M 111 179C 111 188.3 115.4 201 120.9 208C 122.4 209.9 123 210.1 123.3 209C 123.5 208.2 124.4 205.1 125.3 202.1L 126.9 196.7L 121.8 191.6C 119 188.8 115.5 183.8 113.9 180.5L 111 174.5L 111 179z"/>
<path style="stroke:none; fill:#000000" d="M 149.1 186.5C 138.3 204.3 137.5 223.2 146.7 242L 150.4 249.5L 151.1 233.5C 151.5 224.7 152.3 212.3 152.9 206C 154.2 192.4 154.3 181 153.2 181C 152.8 181 150.9 183.5 149.1 186.5z"/>
<path style="stroke:none; fill:#000000" d="M 248.5 193.3C 249.9 207.3 251.1 231.2 250.5 236.4C 250.2 239.6 250.3 242 250.7 241.9C 251.2 241.7 253.6 239.2 256.2 236.5L 260.8 231.5L 256 214C 253.3 204.4 250.4 194.7 249.6 192.5L 248 188.5L 248.5 193.3z"/>
<path style="stroke:none; fill:#000000" d="M 102.2 201.5C 104 208.5 109.1 217.2 114.8 223.2C 117.8 226.4 120.7 229 121.2 229C 121.6 229 122 225.9 122 222.2L 122 215.4L 118.4 214.1C 114.7 212.8 105.9 204.8 102.8 200C 101.2 197.6 101.1 197.6 102.2 201.5z"/>
<path style="stroke:none; fill:#000000" d="M 342.4 218.7C 328.5 252.4 303.3 279.8 271.3 295.9L 267 298L 266.9 294.3C 266.8 286 266.1 286.1 256.5 297.1C 251.6 302.7 243.5 311 238.6 315.6C 233.6 320.2 230.3 324 231.1 324C 234.5 324 258.2 315.5 268.5 310.6C 302.1 294.6 326.9 268.4 338.3 236.5C 341.4 227.8 345 215 344.4 215C 344.1 215 343.2 216.7 342.4 218.7z"/>
<path style="stroke:none; fill:#000000" d="M 100.7 221C 103 227.3 108 234.8 112.9 239.6C 117.3 243.8 127.5 249.9 128.5 248.9C 128.8 248.6 127.9 245.9 126.5 242.9C 125.1 239.9 124 236.7 124 235.8C 124 234.7 122.3 233.6 119.1 232.5C 113.7 230.7 106.6 226 103.5 222.1C 102.4 220.7 100.9 218.9 100.2 218.1C 99.5 217.1 99.6 218.3 100.7 221z"/>
<path style="stroke:none; fill:#000000" d="M 107.5 247.8C 113.8 259.8 126.6 271.5 138.9 276.3C 141.3 277.3 143.4 277.9 143.6 277.8C 143.7 277.6 142.9 274.3 141.8 270.5L 139.7 263.5L 134.1 261.6C 125.2 258.7 116.6 253.5 109.9 246.7L 103.6 240.5L 107.5 247.8z"/>
<path style="stroke:none; fill:#000000" d="M 396 251.7C 391 257.9 383.1 262.9 374 265.6C 365.2 268.1 355.8 272.1 351 275.3C 348.5 276.9 341.8 283.1 336 288.9C 327.9 297.2 324 300.4 319 302.8C 310.7 306.9 302.2 309 294.5 309C 288.5 309 288.4 309.1 283.5 314.1C 280.7 316.9 275.2 321.9 271.2 325.1L 263.9 331L 267.3 331C 270.5 331 285.5 328.7 290.8 327.3C 292.8 326.8 293 327.2 293 330.1C 292.9 334.9 289.9 341 285.7 344.7C 283.6 346.5 282 348.2 282 348.4C 282 349.6 291.4 345.9 294.5 343.5C 298.5 340.5 300.6 336.8 303 329C 304.5 324 305 323.4 308.6 322.2C 322.8 317.5 340.8 305.6 346.8 296.8C 353 287.8 361.5 280.8 374.8 273.8C 387.7 267 394.4 260.4 399.1 250.1C 400.1 247.9 400.8 246 400.7 246C 400.6 246 398.5 248.6 396 251.7z"/>
<path style="stroke:none; fill:#000000" d="M 385.9 271.3C 383.4 273.1 377.7 276.5 373.2 278.9C 364.9 283.4 355.8 291.2 350.5 298.5C 348.9 300.7 346.5 303.7 345.1 305.2C 343.7 306.8 343.1 308 343.7 308C 345.6 308 352.4 304.8 356.8 301.9C 359.1 300.4 361 299.5 361 300C 361 300.4 359.6 304.8 357.9 309.7C 353.6 322.1 345.3 338.6 336.2 353.1C 331.9 359.9 328.1 366.2 327.6 367C 325.5 371 346 347.2 353.8 336.5C 363.6 323.1 372.2 309 380.1 293C 385.9 281.3 391.2 268.9 390.7 268.4C 390.5 268.2 388.4 269.5 385.9 271.3z"/>
<path style="stroke:none; fill:#000000" d="M 215.6 292C 213.5 296.4 210.7 299.7 205.6 304.1C 196.8 311.8 194.6 314.2 190.9 320.5C 188.9 323.9 188 324.9 188 323.4C 188 319.8 192.8 311.5 197.9 306.5C 200.7 303.8 202.7 301.4 202.5 301.2C 201.8 300.4 187.8 309.3 180.4 315.2C 175.9 318.7 173 320.5 173.5 319.4C 175.7 313.9 175.1 313.7 170.4 318.3C 164.3 324.3 154.2 329.4 143 332C 121.1 337.2 116.7 339.1 110.7 346.4C 103.6 355 102.4 360 105.6 368C 107.4 372.4 108.7 373.1 109.2 369.9C 109.4 368.7 110.2 367.4 111 367C 111.8 366.6 114.6 365.2 117.2 363.9C 121.8 361.6 122 361.6 123.7 363.4C 125.4 365.1 125.4 365.3 122.6 367.3C 120.9 368.5 118 370.9 116.1 372.7L 112.5 375.9L 116.5 374.5C 118.7 373.7 121.5 373.1 122.7 373C 124 373 127.2 372.2 129.9 371.1L 134.9 369.2L 141.5 373.2C 153.5 380.4 163 382.5 172.1 380C 174.1 379.4 179.1 376.8 183.1 374.1C 194.1 366.9 198.5 364.9 208 363L 216.5 361.2L 211.6 360.5C 204.7 359.4 193.5 360.5 186.7 362.9C 183.4 364 178.5 365.2 175.7 365.5C 170.7 366.1 171 365.9 181 361.9C 191.1 357.8 191.9 357.7 202.7 357.6C 213.6 357.5 213.9 357.4 211.7 355.8C 210.5 354.8 207.6 353.2 205.3 352.3C 200.6 350.3 200 349.4 202.9 348.5C 206.5 347.4 211.2 340.8 216.6 329.3C 219.5 323 222.9 316.6 224 315C 225.2 313.3 225.7 312 225.1 312C 223.7 312 213.4 320.5 208.2 326L 203.9 330.5L 204.3 325.2C 204.6 321.4 205.7 318.5 208.4 314.2C 214 305.6 217.8 296.9 218.6 291.1C 219 288.3 219.1 286 218.9 286.1C 218.7 286.1 217.2 288.8 215.6 292zM 172.3 344.6C 168.3 347.7 168.2 348.3 171.8 350.1C 174.4 351.4 174.1 351.5 166.5 352.1C 162.1 352.4 156.7 353 154.5 353.4C 150.7 354.1 150.6 354 152.5 352.5C 156.1 349.5 162.7 346 168.2 344C 175.3 341.4 176.1 341.5 172.3 344.6zM 131.1 348C 129.8 349.1 128.2 350 127.5 350C 126.8 350 125.5 350.3 124.6 350.6C 123.7 350.9 123 350.8 123 350.3C 123 349.1 129 346.1 131.5 346.1C 133.4 346.1 133.4 346.2 131.1 348z"/>
<path style="stroke:none; fill:#000000" d="M 248.8 289.4C 245.6 290.1 242.9 290.8 242.7 291.1C 238 297.8 233.2 304.1 231.2 306.2C 229.8 307.8 229.1 309 229.7 309C 231 309 253.9 292 255.9 289.6C 257.5 287.6 257 287.6 248.8 289.4z"/>
<path style="stroke:none; fill:#000000" d="M 113.5 297.6C 116.3 299.6 120.3 302 122.5 303C 128.7 305.7 140.2 308 147.4 308C 151 308 154.1 308.4 154.4 308.9C 155.9 311.2 133.6 313.1 121 311.7C 114.5 311 114.5 311 118 312.6C 129.5 317.7 149.5 319.8 160 317C 166.1 315.4 175.2 311.2 174.8 310.2C 174.7 309.8 172.5 305.9 170 301.6C 165.7 294.3 165.4 293.9 162.5 294.4C 160.9 294.7 155.9 295.6 151.5 296.4C 140 298.6 126.9 298.4 117.5 296C 113.2 294.9 109.4 294 109.1 294C 108.8 294 110.8 295.6 113.5 297.6z"/>
<path style="stroke:none; fill:#000000" d="M 276.5 313.5C 274.3 314.8 266.9 317.7 260 320C 246.2 324.6 238.9 328.2 231.6 334.3C 227.8 337.5 226.6 338 225.9 336.9C 224.8 335.1 224.8 333.7 226 330.6C 227.4 326.8 225.6 327.4 221.5 332.2C 211.5 343.8 211.6 353.1 221.8 360C 223.6 361.3 230.4 363.8 236.8 365.6C 258.2 371.5 260.6 373.4 256.5 381.4C 254.5 385.1 254.5 385 258.3 385.1C 260 385.1 262.4 385.5 263.5 386C 264.9 386.5 266.1 386.2 267.7 384.7C 268.9 383.6 272.2 381.9 275 381C 278.4 379.9 279.6 379.1 278.6 378.7C 275.4 377.4 277.1 376.5 282 376.8C 284.7 377 288.6 376.6 290.7 375.9L 294.5 374.7L 287.3 372.9C 283.4 371.9 278.6 370.3 276.8 369.3L 273.5 367.5L 283.3 366.9C 288.7 366.5 293.3 366 293.6 365.7C 293.9 365.4 292 364.7 289.3 364.1C 286.7 363.5 282.3 362.2 279.5 361.1L 274.5 359.1L 283.7 359.1C 294.2 359.2 296.9 358.3 291.9 356.5C 290 355.8 286.1 354.3 283.2 353.1C 280.3 351.9 276.9 351 275.5 351L 273 351L 276.5 346.4C 278.4 343.9 280 341.4 280 340.9C 280 340.3 282.1 337.7 284.6 335C 289.2 330.1 289.2 330.1 286.1 331C 284.4 331.5 279.2 334.3 274.6 337.4C 265.5 343.3 258.9 346 253.7 346C 250.5 345.9 250.5 345.9 252.6 344.2C 255.2 342 257 338.7 257 336.1C 257 334.3 256.7 334.2 254.4 335C 253 335.6 250.2 336 248.2 336L 244.6 336L 247.4 333.1C 250.2 330.2 253.3 328.6 263.1 325C 269.2 322.8 276.9 317.3 279.5 313.4C 280.3 312.1 280.9 311 280.8 311C 280.6 311.1 278.7 312.2 276.5 313.5z"/>
<path style="stroke:none; fill:#000000" d="M 322.9 318.2C 308.8 325 308.2 325.5 306 329.9C 304.7 332.4 302.9 337.2 301.9 340.4C 299.9 346.8 297.4 365.7 298.4 366.7C 298.7 367 300.6 365.8 302.6 364C 304.7 362.2 307.5 360.4 309 359.8C 311.5 359 311.8 358.4 312.3 352.2C 312.6 348.5 313.8 342.9 315 339.8C 316.9 334.6 317.4 334 321.7 332.6C 324.3 331.7 326.5 331 326.7 331C 326.9 331 327 333.8 327 337.3C 327 344.9 324.9 353.3 320.9 361.9C 319.3 365.4 318.2 368.5 318.4 368.7C 318.6 369 321.1 365.8 323.9 361.6C 329.8 352.9 334.6 341.7 336.5 332.1C 338.3 323.3 339.3 311 338.3 311.1C 337.9 311.1 330.9 314.4 322.9 318.2z"/>
<path style="stroke:none; fill:#000000" d="M 208.5 366.1C 202.5 367.1 190.1 373.2 186.8 376.8C 184.7 379.1 184.7 379.2 186.5 378.5C 187.6 378 191.9 377.6 196 377.4C 202.6 377.2 204.4 376.7 211.3 373.1C 215.6 370.9 220.9 368.7 223 368.4C 228.5 367.5 228 366.4 221.8 365.6C 215.7 364.9 215.3 364.9 208.5 366.1z"/>
<path style="stroke:none; fill:#000000" d="M 220.3 372.4C 216.8 373.7 213.4 375.3 212.6 375.9C 210.6 377.6 200.1 381 196.9 381C 194.6 381 193.6 381.9 191.6 385.3C 187.4 392.4 185.9 397.9 184.9 409.5C 183.8 422.4 182 429.5 177.9 436.7L 175 442L 182.7 442C 190.4 442 190.5 441.9 193.2 438.6C 195.3 435.9 197.7 434.6 203.1 432.8C 209.4 430.8 218 425.2 218 423.2C 218 422.8 214.7 422.6 210.8 422.8C 204.1 423.1 199.7 422 201.1 420.5C 201.5 420.2 204.5 419.4 208 418.7C 213 417.6 213.9 417.2 212.7 416.2C 212 415.5 209.9 414.7 208.1 414.4C 204.6 413.7 205.6 412 209.6 412C 211.4 412 212.2 410.6 214.5 404.3C 217.8 394.9 220.6 390.3 225.9 385.8C 228.2 383.9 230 382 230 381.7C 230 381.3 228.4 381 226.3 381C 222.7 381 222.7 381 224.6 378.9C 227 376.3 235.2 372 238 372C 239.1 372 240 371.5 240 371C 240 369 226.8 370 220.3 372.4z"/>
<path style="stroke:none; fill:#000000" d="M 228 390.2C 224.9 393.5 223.9 398.5 225.1 404.1C 225.7 406.8 226.6 409 227.1 409C 227.5 409 227.7 408.3 227.4 407.5C 227.1 406.7 227.3 404.5 228 402.5C 228.9 399.7 230.2 398.5 233.8 396.7C 238.7 394.4 240 392 238 389.5C 236.1 387.2 230.4 387.6 228 390.2z"/>
<path style="stroke:none; fill:#000000" d="M 263.2 390.2C 260.3 393.1 263.7 398 268.6 398C 271.7 398 275 402.5 275 406.7C 275 411.2 276.6 410.1 277.3 405.1C 278.5 396.1 274.2 389 267.6 389C 265.9 389 263.9 389.5 263.2 390.2z"/>
<path style="stroke:none; fill:#000000" d="M 243.2 393.5C 238.7 398.5 236.9 406.3 238.9 411.5C 239.5 413.1 239.9 412.5 240.4 408.8C 241.4 402.4 244.2 399 248.6 399C 254.4 399 258.3 393.3 254.1 391C 250.2 389 246.4 389.8 243.2 393.5z"/>
<path style="stroke:none; fill:#000000" d="M 155 431.7C 152.4 432.6 146 437.2 146 438.2C 146 438.7 146.9 438.6 147.9 438C 151.5 436.1 156.3 436.9 160 440C 164 443.5 165.1 443.7 167.4 441.1C 170.7 437.4 165.6 430.9 159.5 431.1C 157.9 431.1 155.8 431.4 155 431.7z"/>
<path style="stroke:none; fill:#000000" d="M 146.2 442.3C 143.4 445.3 141 451.2 141 455.2L 141.1 458.5L 143 454.6C 145.5 449.7 146.5 449 151.7 449C 155.9 449 159 447.1 159 444.5C 159 439.9 149.9 438.3 146.2 442.3z"/>
<path style="stroke:none; fill:#000000" d="M 181.6 447.9C 179.3 450.4 180.9 453.7 184.8 454.6C 190.6 455.8 191.8 456.8 193.3 461.7L 194.7 466.5L 195.5 462.7C 197.2 454.4 192.7 446 186.6 446C 184.6 446 182.6 446.8 181.6 447.9z"/>
<path style="stroke:none; fill:#000000" d="M 162.5 449.2C 158.8 452.1 157 456.8 157 463.9C 157 470.7 158.6 473.2 158.8 466.8C 159.1 460.3 161.8 456.7 166.9 455.8C 171.8 455 174 453.5 174 451.1C 174 446.7 167.1 445.5 162.5 449.2z"/>
</g>
</svg>